<?xml version="1.0" encoding="UTF-8"?>
<svg id="Layer_1" data-name="Layer 1" xmlns="http://www.w3.org/2000/svg" xmlns:xlink="http://www.w3.org/1999/xlink" viewBox="0 0 800 500">
  <defs>
    <style>
      .cls-1 {
        fill: url(#radial-gradient-5);
      }

      .cls-2 {
        fill: url(#radial-gradient);
      }

      .cls-3 {
        fill: url(#radial-gradient-3);
      }

      .cls-4 {
        fill: #ed7b64;
      }

      .cls-5 {
        fill: none;
        stroke: #000;
        stroke-miterlimit: 10;
        stroke-width: 2.46px;
      }

      .cls-6 {
        fill: url(#radial-gradient-8);
      }

      .cls-7 {
        fill: url(#radial-gradient-2);
      }

      .cls-8 {
        fill: #a9f27e;
      }

      .cls-9 {
        fill: url(#radial-gradient-4);
      }

      .cls-10 {
        fill: #f2dc7e;
      }

      .cls-11 {
        fill: #e1e6ea;
      }

      .cls-12 {
        fill: url(#radial-gradient-6);
      }

      .cls-13 {
        fill: url(#radial-gradient-7);
      }
    </style>
    <radialGradient id="radial-gradient" cx="-1986.98" cy="158.26" fx="-1986.98" fy="158.26" r="111.45" gradientTransform="translate(2603.19)" gradientUnits="userSpaceOnUse">
      <stop offset="0" stop-color="#facd78"/>
      <stop offset="1" stop-color="#ebaa43"/>
    </radialGradient>
    <radialGradient id="radial-gradient-2" cx="322.94" cy="229.54" fx="322.94" fy="229.54" r="221.96" gradientTransform="translate(593.24) rotate(-180) scale(1 -1)" xlink:href="#radial-gradient"/>
    <radialGradient id="radial-gradient-3" cx="422.43" cy="221.59" fx="422.43" fy="221.59" r="57.67" gradientTransform="translate(593.24) rotate(-180) scale(1 -1)" gradientUnits="userSpaceOnUse">
      <stop offset="0" stop-color="#f5957c"/>
      <stop offset=".09" stop-color="#f4957a" stop-opacity=".97"/>
      <stop offset=".23" stop-color="#f39774" stop-opacity=".87"/>
      <stop offset=".4" stop-color="#f29a6b" stop-opacity=".72"/>
      <stop offset=".6" stop-color="#f09f5f" stop-opacity=".51"/>
      <stop offset=".82" stop-color="#eda550" stop-opacity=".24"/>
      <stop offset="1" stop-color="#ebaa43" stop-opacity="0"/>
    </radialGradient>
    <radialGradient id="radial-gradient-4" cx="242.17" cy="220.21" fx="242.17" fy="220.21" r="62.67" gradientTransform="translate(593.24) rotate(-180) scale(1 -1)" gradientUnits="userSpaceOnUse">
      <stop offset=".05" stop-color="#f5957c"/>
      <stop offset=".14" stop-color="#f4957a" stop-opacity=".97"/>
      <stop offset=".27" stop-color="#f39774" stop-opacity=".87"/>
      <stop offset=".43" stop-color="#f29a6b" stop-opacity=".72"/>
      <stop offset=".62" stop-color="#f09f5f" stop-opacity=".51"/>
      <stop offset=".83" stop-color="#eda550" stop-opacity=".24"/>
      <stop offset="1" stop-color="#ebaa43" stop-opacity="0"/>
    </radialGradient>
    <radialGradient id="radial-gradient-5" cx="497.09" cy="340.95" fx="497.09" fy="340.95" r="67.67" gradientTransform="translate(81.95 -102.85) rotate(13.19)" xlink:href="#radial-gradient"/>
    <radialGradient id="radial-gradient-6" cx="497.09" cy="262.48" fx="497.09" fy="262.48" r="71.11" gradientTransform="translate(81.95 -102.85) rotate(13.19)" xlink:href="#radial-gradient"/>
    <radialGradient id="radial-gradient-7" cx="351.27" cy="164.45" fx="351.27" fy="164.45" r="35.72" gradientTransform="translate(16.68 115.79) rotate(-20.49)" xlink:href="#radial-gradient"/>
    <radialGradient id="radial-gradient-8" cx="351.27" cy="123.03" fx="351.27" fy="123.03" r="37.54" gradientTransform="translate(16.68 115.79) rotate(-20.49)" xlink:href="#radial-gradient"/>
  </defs>
  <path class="cls-11" d="M489.73,15.98c-117.07-13.43-223.64,18.44-312.97,94.02-72.4,61.25-123.15,130.67-68.22,225.17,35.21,60.58,98.63,121.03,167.91,138.78,123.65,31.67,222.35-1.28,328.53-61.5,44.92-25.48,88.52-51.02,108.92-101.38,20.8-51.34,10.22-116.01-11.55-165.41-40.06-90.89-119.17-118.96-212.62-129.68Z"/>
  <path d="M580.43,368.33c-2.98,12.73-45.82,13.57-95.67,1.89s-87.86-31.47-84.87-44.2c2.98-12.73,19.55-19.73,95.67-1.89,75.28,17.64,87.86,31.47,84.87,44.2Z"/>
  <path d="M580.43,368.33c-2.98,12.73-45.82,13.57-95.67,1.89-49.86-11.68-87.86-31.47-84.87-44.2s19.55-19.73,95.67-1.89c75.28,17.64,87.86,31.47,84.87,44.2Z"/>
  <circle cx="634.04" cy="191.49" r="61.15"/>
  <path class="cls-2" d="M696.71,185.55c0,33.77-27.38,61.15-61.15,61.15-33.77,0-61.15-27.38-61.15-61.15,0-33.77,27.38-61.15,61.15-61.15,33.77,0,61.15,27.38,61.15,61.15Z"/>
  <path class="cls-5" d="M628.82,194.08c.88,2.67,3.4,4.6,6.36,4.6,2.96,0,5.48-1.93,6.36-4.6"/>
  <path class="cls-5" d="M608.14,194.08c.88,2.67,3.4,4.6,6.36,4.6s5.48-1.93,6.36-4.6"/>
  <path class="cls-5" d="M647.38,201.2c-2.99,9.05-11.52,15.58-21.57,15.58-10.05,0-18.58-6.53-21.57-15.58"/>
  <path class="cls-5" d="M593.93,127.08c-11.61,4.07-18.11,10.79-19.52,20.17"/>
  <path class="cls-5" d="M593.93,116.7c-15.43,3.11-26.03,13.83-31.78,32.18"/>
  <path class="cls-5" d="M709.2,191.56c3.57-11.77,1.98-20.99-4.76-27.66"/>
  <path class="cls-5" d="M717.57,197.68c6.6-14.29,4.2-29.18-7.21-44.65"/>
  <circle cx="219.95" cy="295.71" r="121.78"/>
  <circle class="cls-7" cx="231.77" cy="283.89" r="121.78"/>
  <path class="cls-3" d="M116.72,243.89c8.59,22.53,30.4,38.52,55.94,38.52,33.06,0,59.85-26.8,59.85-59.86,0-24.76-15.04-46.01-36.47-55.12-37.09,11.37-66.64,39.96-79.33,76.45Z"/>
  <path class="cls-9" d="M286.38,222.55c0,33.06,26.8,59.86,59.86,59.86,2.47,0,4.91-.15,7.3-.44-.63-40.83-21.35-76.77-52.71-98.41-9.01,10.47-14.45,24.09-14.45,38.99Z"/>
  <path class="cls-5" d="M245.19,222.55c-1.76-5.32-6.77-9.15-12.67-9.15s-10.91,3.84-12.67,9.15"/>
  <path class="cls-5" d="M286.38,222.55c-1.76-5.32-6.77-9.15-12.67-9.15s-10.91,3.84-12.67,9.15"/>
  <path class="cls-5" d="M208.23,227.58c5.95,18.02,22.93,31.03,42.95,31.03s37-13.01,42.95-31.03"/>
  <path class="cls-5" d="M159.48,154.55c-26.17,9.17-40.84,24.33-44.02,45.48"/>
  <path class="cls-5" d="M159.48,131.15c-34.8,7.01-58.69,31.19-71.66,72.56"/>
  <path class="cls-5" d="M302.22,412.76c26.17-9.17,40.84-24.33,44.02-45.48"/>
  <path class="cls-5" d="M302.22,436.15c34.8-7.01,58.69-31.19,71.66-72.56"/>
  <path class="cls-1" d="M578.42,363.67c-2.98,12.73-45.82,13.57-95.67,1.89s-87.86-31.47-84.87-44.2c2.98-12.73,19.55-19.73,95.67-1.89,75.28,17.64,87.86,31.47,84.87,44.2Z"/>
  <ellipse class="cls-4" cx="492.98" cy="321.85" rx="17.83" ry="101.92" transform="translate(67.15 728.4) rotate(-76.81)"/>
  <path class="cls-8" d="M573.2,341.04c47.03,14.93-17.56-11.59-57.78-11.79-110.63-.57-99.38-23.33-93.81-45.8-60.7-13.18-15.26-12.14,111.57,10.3,24.43,28.18,99.9,28.01,40.02,47.29Z"/>
  <path class="cls-10" d="M605.69,321.2c-14.34,1.71-48.26,24.02-104.81-19.43-53.58-5.68-105.16-23.88-100.93-16.79,8.66-39.32,46.89-30.08,109.97-22.36,40.1,36.38,84.44,47.93,95.77,58.58Z"/>
  <path d="M594.85,306.81c-2.98,12.73-45.82,13.57-95.67,1.89-49.86-11.68-87.86-31.47-84.87-44.2,2.98-12.73,31.49-48.31,102.65-31.64,63.91,14.97,80.89,61.22,77.9,73.95Z"/>
  <path class="cls-12" d="M592.83,302.14c-2.98,12.73-45.82,13.57-95.67,1.89-49.86-11.68-87.86-31.47-84.87-44.2s31.49-48.31,102.65-31.64c63.91,14.97,80.89,61.22,77.9,73.95Z"/>
  <path d="M448.91,132.01c2.42,6.46-16.15,19.38-41.47,28.84-25.32,9.46-47.81,11.9-50.22,5.43-2.42-6.46,2.81-14.39,41.47-28.84,38.23-14.29,47.81-11.9,50.22-5.43Z"/>
  <path class="cls-13" d="M449.14,129.72c2.42,6.46-16.15,19.38-41.47,28.84-25.32,9.46-47.81,11.9-50.22,5.43s2.81-14.39,41.47-28.84c38.23-14.29,47.81-11.9,50.22-5.43Z"/>
  <ellipse class="cls-4" cx="399.37" cy="136.36" rx="53.81" ry="9.41" transform="translate(-22.46 148.45) rotate(-20.49)"/>
  <path class="cls-8" d="M435.83,117.5c26.88,8.7-3.54,3.96-23.96,23.43-56.23,19.2-52.87,20.41-53,6.3-33.83-7.44-13.15-20.97,51.31-24.49,12.39.59,53.14-17.05,25.65-5.24Z"/>
  <path class="cls-10" d="M448.59,105.82c-4.33-.78-19.15,29.49-47.87,17.95-27.21,15.54-55.81,20.01-56.62,27.1,1.44-26.19,18.45-33.83,50.49-47.91,20.36,6.47,45.28-2.77,54,2.86Z"/>
  <path d="M437.23,100.76c2.42,6.46-16.15,19.38-41.47,28.84-25.32,9.46-47.81,11.9-50.22,5.43s-.31-30.44,35.83-43.95c32.46-12.13,53.45,3.21,55.87,9.68Z"/>
  <path class="cls-6" d="M437.47,98.48c2.42,6.46-16.15,19.38-41.47,28.84-25.32,9.46-47.81,11.9-50.22,5.43-2.42-6.46-.31-30.44,35.83-43.95,32.46-12.13,53.45,3.21,55.87,9.68Z"/>
</svg>