<?xml version="1.0" encoding="UTF-8"?>
<svg id="Layer_1" data-name="Layer 1" xmlns="http://www.w3.org/2000/svg" xmlns:xlink="http://www.w3.org/1999/xlink" viewBox="0 0 800 500">
  <defs>
    <style>
      .cls-1 {
        fill: url(#radial-gradient-5);
      }

      .cls-2 {
        fill: url(#radial-gradient);
      }

      .cls-3 {
        fill: url(#radial-gradient-3);
      }

      .cls-4 {
        stroke-width: 2.46px;
      }

      .cls-4, .cls-5 {
        fill: none;
        stroke: #000;
        stroke-miterlimit: 10;
      }

      .cls-6 {
        fill: url(#radial-gradient-2);
      }

      .cls-7 {
        fill: url(#radial-gradient-4);
      }

      .cls-5 {
        stroke-width: 1.78px;
      }

      .cls-8 {
        fill: #e1e6ea;
      }

      .cls-9 {
        fill: url(#radial-gradient-6);
      }

      .cls-10 {
        fill: url(#radial-gradient-7);
      }
    </style>
    <radialGradient id="radial-gradient" cx="503.59" cy="185.94" fx="503.59" fy="185.94" r="221.96" gradientUnits="userSpaceOnUse">
      <stop offset="0" stop-color="#facd78"/>
      <stop offset="1" stop-color="#ebaa43"/>
    </radialGradient>
    <radialGradient id="radial-gradient-2" cx="603.07" cy="178" fx="603.07" fy="178" r="57.67" gradientUnits="userSpaceOnUse">
      <stop offset="0" stop-color="#f5957c"/>
      <stop offset=".09" stop-color="#f4957a" stop-opacity=".97"/>
      <stop offset=".23" stop-color="#f39774" stop-opacity=".87"/>
      <stop offset=".4" stop-color="#f29a6b" stop-opacity=".72"/>
      <stop offset=".6" stop-color="#f09f5f" stop-opacity=".51"/>
      <stop offset=".82" stop-color="#eda550" stop-opacity=".24"/>
      <stop offset="1" stop-color="#ebaa43" stop-opacity="0"/>
    </radialGradient>
    <radialGradient id="radial-gradient-3" cx="422.81" cy="176.62" fx="422.81" fy="176.62" r="62.67" gradientUnits="userSpaceOnUse">
      <stop offset=".05" stop-color="#f5957c"/>
      <stop offset=".14" stop-color="#f4957a" stop-opacity=".97"/>
      <stop offset=".27" stop-color="#f39774" stop-opacity=".87"/>
      <stop offset=".43" stop-color="#f29a6b" stop-opacity=".72"/>
      <stop offset=".62" stop-color="#f09f5f" stop-opacity=".51"/>
      <stop offset=".83" stop-color="#eda550" stop-opacity=".24"/>
      <stop offset="1" stop-color="#ebaa43" stop-opacity="0"/>
    </radialGradient>
    <radialGradient id="radial-gradient-4" cx="-6461.05" cy="302.35" fx="-6461.05" fy="302.35" r="161.66" gradientTransform="translate(-6206.79) rotate(-180) scale(1 -1)" xlink:href="#radial-gradient"/>
    <radialGradient id="radial-gradient-5" cx="182" cy="299.86" fx="182" fy="299.86" r="42.56" xlink:href="#radial-gradient-2"/>
    <radialGradient id="radial-gradient-6" cx="309.97" cy="296.42" fx="309.97" fy="296.42" r="42.68" xlink:href="#radial-gradient-2"/>
    <radialGradient id="radial-gradient-7" cx="-6500.74" cy="133.34" fx="-6500.74" fy="133.34" r="81.48" gradientTransform="translate(-5874.44 2201.83) rotate(160.19) scale(1 -1)" xlink:href="#radial-gradient"/>
  </defs>
  <path class="cls-8" d="M224.69,69.91C326.79,11.08,437.26-2,549.26,31.88c90.77,27.46,164.92,71,152.04,179.55-8.26,69.59-42.44,150.25-98.97,194.05-100.9,78.18-204.57,87.14-325.93,74.05-51.34-5.54-101.5-11.66-140.23-49.78-39.48-38.86-55.46-102.41-55.1-156.39.66-99.32,62.12-156.51,143.62-203.46Z"/>
  <path class="cls-5" d="M315.98,130.77c8.67-20.37,20.42-26.71,35.12-28.02"/>
  <path class="cls-4" d="M303.22,333c22.16,5.57,37.46,25.03,47.87,54.43"/>
  <circle cx="553.94" cy="252.12" r="121.78"/>
  <circle class="cls-2" cx="542.12" cy="240.3" r="121.78"/>
  <path class="cls-6" d="M657.17,200.29c-8.59,22.53-30.4,38.52-55.94,38.52-33.06,0-59.85-26.8-59.85-59.86,0-24.76,15.04-46.01,36.47-55.12,37.09,11.37,66.64,39.96,79.33,76.45Z"/>
  <path class="cls-3" d="M487.52,178.96c0,33.06-26.8,59.86-59.86,59.86-2.47,0-4.91-.15-7.3-.44.63-40.83,21.35-76.77,52.71-98.41,9.01,10.47,14.45,24.09,14.45,38.99Z"/>
  <path class="cls-4" d="M528.7,178.96c1.76-5.32,6.77-9.15,12.67-9.15s10.91,3.84,12.67,9.15"/>
  <path class="cls-4" d="M487.51,178.96c1.76-5.32,6.77-9.15,12.67-9.15s10.91,3.84,12.67,9.15"/>
  <path class="cls-4" d="M565.66,183.98c-5.95,18.02-22.93,31.03-42.95,31.03s-37-13.01-42.95-31.03"/>
  <circle cx="217.59" cy="350.54" r="88.7"/>
  <circle class="cls-7" cx="226.2" cy="341.93" r="88.7"/>
  <path class="cls-1" d="M226.75,297.26c0,24.07-19.52,43.59-43.6,43.59-18.6,0-34.48-11.65-40.74-28.06,9.23-26.58,30.76-47.41,57.77-55.68,15.61,6.63,26.56,22.11,26.56,40.14Z"/>
  <path class="cls-9" d="M314.88,340.53c-1.74.21-3.52.32-5.31.32-24.08,0-43.6-19.52-43.6-43.59,0-10.85,3.96-20.77,10.51-28.4,22.85,15.75,37.95,41.93,38.4,71.67Z"/>
  <path class="cls-4" d="M235.97,290.59c-1.28,3.87-4.93,6.67-9.23,6.67s-7.95-2.79-9.23-6.67"/>
  <path class="cls-4" d="M265.97,290.59c-1.28,3.87-4.93,6.67-9.23,6.67s-7.95-2.79-9.23-6.67"/>
  <path class="cls-4" d="M209.05,300.92c4.34,13.13,16.7,22.6,31.28,22.6s26.95-9.47,31.28-22.6"/>
  <path class="cls-4" d="M300.95,408.43c-6.76,16.51-16.99,25.43-30.69,26.76"/>
  <path class="cls-4" d="M315.98,409.21c-5.66,22.12-22,36.66-49.01,43.62"/>
  <path class="cls-4" d="M614.41,110.95c26.17,9.17,40.84,24.33,44.02,45.48"/>
  <path class="cls-4" d="M614.41,87.56c34.8,7.01,58.69,31.19,71.66,72.56"/>
  <path class="cls-4" d="M471.67,369.17c-26.17-9.17-40.84-24.33-44.02-45.48"/>
  <path class="cls-4" d="M471.67,392.56c-34.8-7.01-58.69-31.19-71.66-72.56"/>
  <circle cx="282.68" cy="151.18" r="44.71"/>
  <circle class="cls-10" cx="280.16" cy="147.47" r="44.71"/>
  <path class="cls-5" d="M286.91,151.67c.05,2.05-1.2,4-3.24,4.74s-4.25.03-5.51-1.58"/>
  <path class="cls-5" d="M301.13,146.55c.05,2.05-1.2,4-3.24,4.74s-4.25.03-5.51-1.58"/>
  <path class="cls-5" d="M275.91,161.17c4.3,5.48,11.78,7.86,18.7,5.37s11.16-9.1,10.97-16.06"/>
  <path class="cls-5" d="M294.3,96.94c8.99-.08,15.13,2.93,18.43,9.04"/>
  <path class="cls-5" d="M291.73,89.8c11.39-1.69,21.33,3.07,29.84,14.26"/>
  <path class="cls-5" d="M258.82,194.28c-8.95-.84-14.75-4.47-17.41-10.88"/>
  <path class="cls-5" d="M260.65,201.64c-11.5.51-20.91-5.23-28.22-17.24"/>
  <path class="cls-4" d="M395.93,153.94c-6.85,32.68,2.36,52.17,27.62,58.47"/>
  <path class="cls-4" d="M642.46,210.43c42.57-.94,56.15,25.03,59.99,70.26"/>
  <path class="cls-4" d="M146.01,321.26c-19.55-20.19-31.05-42.08-23.5-68.02"/>
  <path class="cls-5" d="M251.87,164.84c-23.93.36-38.19-10.18-42.82-31.63"/>
  <circle cx="351.1" cy="102.75" r="5.04"/>
  <circle cx="394.98" cy="152.84" r="7.68"/>
  <circle cx="702.45" cy="280.69" r="7.68"/>
  <circle cx="351.1" cy="387.43" r="7.68"/>
  <circle cx="122.54" cy="253.24" r="7.68"/>
  <circle cx="209.05" cy="133.2" r="5.04"/>
</svg>