<?xml version="1.0" encoding="UTF-8"?>
<svg id="Layer_1" data-name="Layer 1" xmlns="http://www.w3.org/2000/svg" xmlns:xlink="http://www.w3.org/1999/xlink" viewBox="0 0 800 500">
  <defs>
    <style>
      .cls-1 {
        stroke-width: 2.6px;
      }

      .cls-1, .cls-2 {
        fill: none;
        stroke: #000;
        stroke-miterlimit: 10;
      }

      .cls-3 {
        fill: url(#radial-gradient-5);
      }

      .cls-4 {
        fill: url(#radial-gradient);
      }

      .cls-5 {
        fill: url(#radial-gradient-3);
      }

      .cls-6 {
        fill: url(#radial-gradient-2);
      }

      .cls-2 {
        stroke-width: 2.34px;
      }

      .cls-7 {
        fill: url(#radial-gradient-4);
      }

      .cls-8 {
        fill: #e1e6ea;
      }

      .cls-9 {
        fill: url(#radial-gradient-6);
      }
    </style>
    <radialGradient id="radial-gradient" cx="439.78" cy="246.16" fx="439.78" fy="246.16" r="234.63" gradientTransform="translate(176.4 -189.92) rotate(24.83)" gradientUnits="userSpaceOnUse">
      <stop offset="0" stop-color="#facd78"/>
      <stop offset="1" stop-color="#ebaa43"/>
    </radialGradient>
    <radialGradient id="radial-gradient-2" cx="544.95" cy="237.76" fx="544.95" fy="237.76" r="60.96" gradientTransform="translate(176.4 -189.92) rotate(24.83)" gradientUnits="userSpaceOnUse">
      <stop offset="0" stop-color="#f5957c"/>
      <stop offset=".09" stop-color="#f4957a" stop-opacity=".97"/>
      <stop offset=".23" stop-color="#f39774" stop-opacity=".87"/>
      <stop offset=".4" stop-color="#f29a6b" stop-opacity=".72"/>
      <stop offset=".6" stop-color="#f09f5f" stop-opacity=".51"/>
      <stop offset=".82" stop-color="#eda550" stop-opacity=".24"/>
      <stop offset="1" stop-color="#ebaa43" stop-opacity="0"/>
    </radialGradient>
    <radialGradient id="radial-gradient-3" cx="354.39" cy="236.3" fx="354.39" fy="236.3" r="66.25" gradientTransform="translate(176.4 -189.92) rotate(24.83)" gradientUnits="userSpaceOnUse">
      <stop offset=".05" stop-color="#f5957c"/>
      <stop offset=".14" stop-color="#f4957a" stop-opacity=".97"/>
      <stop offset=".27" stop-color="#f39774" stop-opacity=".87"/>
      <stop offset=".43" stop-color="#f29a6b" stop-opacity=".72"/>
      <stop offset=".62" stop-color="#f09f5f" stop-opacity=".51"/>
      <stop offset=".83" stop-color="#eda550" stop-opacity=".24"/>
      <stop offset="1" stop-color="#ebaa43" stop-opacity="0"/>
    </radialGradient>
    <radialGradient id="radial-gradient-4" cx="-4816.89" cy="355.42" fx="-4816.89" fy="355.42" r="153.9" gradientTransform="translate(-4322.92 1758.87) rotate(156.41) scale(1 -1)" xlink:href="#radial-gradient"/>
    <radialGradient id="radial-gradient-5" cx="181.31" cy="353.06" fx="181.31" fy="353.06" r="40.51" gradientTransform="translate(-137.67 -68.48) rotate(-23.59)" xlink:href="#radial-gradient-2"/>
    <radialGradient id="radial-gradient-6" cx="303.14" cy="349.78" fx="303.14" fy="349.78" r="40.63" gradientTransform="translate(-137.67 -68.48) rotate(-23.59)" xlink:href="#radial-gradient-2"/>
  </defs>
  <path class="cls-8" d="M262.79,457.85c111.11,39.24,222.11,31.98,326.06-21.74,84.25-43.53,149.22-99.86,116.79-204.25-20.79-66.92-69.1-140.01-132.67-172.78C459.52.6,355.96,10.67,239.01,45.65c-49.48,14.8-97.68,29.96-128.81,74.49-31.74,45.4-35.87,110.79-25.69,163.81,18.74,97.54,89.59,142.57,178.28,173.9Z"/>
  <circle cx="491.06" cy="304.02" r="128.74"/>
  <circle class="cls-4" cx="484.97" cy="287.43" r="128.74"/>
  <path class="cls-6" d="M613.1,300.13c-18.25,17.8-46.27,23.46-70.77,12.12-31.72-14.68-45.52-52.29-30.84-84,10.99-23.75,34.85-37.46,59.46-36.68,30.53,27.37,46.19,67.93,42.16,108.57Z"/>
  <path class="cls-5" d="M459.82,204.34c-14.68,31.72-52.29,45.53-84.01,30.85-2.37-1.1-4.64-2.32-6.8-3.67,18.73-38.89,54.56-64.18,94.26-71.01,4,14.04,3.17,29.53-3.45,43.82Z"/>
  <path class="cls-1" d="M499.32,222.63c4.05-4.32,10.55-5.78,16.22-3.16,5.66,2.62,8.77,8.53,8.09,14.41"/>
  <path class="cls-1" d="M459.81,204.34c4.05-4.32,10.55-5.78,16.22-3.16s8.77,8.53,8.09,14.41"/>
  <path class="cls-1" d="M532.55,243.86c-13.71,14.65-35.78,19.59-54.98,10.7-19.2-8.89-29.72-28.9-27.43-48.84"/>
  <circle cx="220.12" cy="213.19" r="84.44"/>
  <circle class="cls-7" cx="224.36" cy="202.4" r="84.44"/>
  <path class="cls-3" d="M207.82,163.22c9.17,21-.43,45.47-21.43,54.64-16.23,7.09-34.52,2.97-46.23-8.96-2.07-26.71,8.77-53.08,29.2-70.58,16.15-.16,31.6,9.17,38.47,24.9Z"/>
  <path class="cls-9" d="M301.19,167.4c-1.44.85-2.95,1.62-4.51,2.3-21.01,9.17-45.47-.42-54.64-21.42-4.13-9.47-4.45-19.63-1.65-28.79,25.93,5.04,49.08,22.13,60.81,47.9Z"/>
  <path class="cls-2" d="M213.33,153.88c.36,3.87-1.76,7.69-5.51,9.33s-8,.59-10.59-2.3"/>
  <path class="cls-2" d="M239.5,142.46c.36,3.87-1.76,7.69-5.51,9.33-3.75,1.64-8,.59-10.59-2.3"/>
  <path class="cls-2" d="M193.77,173.15c8.78,9.8,23.18,13.35,35.9,7.8,12.72-5.55,19.9-18.53,18.69-31.63"/>
  <path class="cls-2" d="M153.22,282.58c-15.79-6.25-24.4-15.89-25.82-28.91"/>
  <path class="cls-2" d="M152.64,296.9c-21.13-5.14-35.15-20.52-42.08-46.15"/>
  <path class="cls-1" d="M624.9,245.18c15.3,25.01,17.17,47.23,5.63,66.67"/>
  <path class="cls-1" d="M640.54,226.02c23.81,29.01,27.2,64.78,10.16,107.32"/>
  <path class="cls-1" d="M388.72,404.29c-26.25-13.05-39.65-30.87-40.21-53.48"/>
  <path class="cls-1" d="M385.65,428.83c-35.59-11.91-57.47-40.41-65.66-85.5"/>
  <path class="cls-2" d="M321.24,221.96c.8,16.96-4.43,28.78-15.71,35.44"/>
  <path class="cls-2" d="M334.52,216.58c4.02,21.37-4.23,40.48-24.74,57.35"/>
  <path d="M424.07,134.22c.25-.99.54-1.85.87-2.59.33-.74.71-1.43,1.14-2.06.43-.63.91-1.21,1.44-1.73.53-.52,1.12-1.08,1.77-1.67.5,0,.97-.06,1.42-.21.45-.14.87-.28,1.28-.42.42-.17.82-.3,1.2-.4.38-.1.71-.11,1.01-.03l.58-.11c.9-.5,1.92-.88,3.07-1.16,1.14-.28,2.31-.52,3.5-.73,1-.17,1.98-.36,2.95-.56.97-.2,1.91-.49,2.8-.88.3.15.6.18.88.11.24-.16.39-.38.45-.64.12-.03.23-.07.34-.12.11-.05.22-.09.34-.12.33-.13.77-.23,1.32-.3.54-.07.97-.28,1.28-.63l1.67-.73-1.73-.58c-.85-.31-1.78-.6-2.78-.86-1-.26-1.86-.49-2.58-.68-.59-.15-1.19-.31-1.79-.49s-1.27-.39-2-.63c-.46-.6-.8-1.28-1-2.04-.21-.76-.3-1.53-.28-2.31.02-.78.15-1.56.4-2.33.25-.77.61-1.46,1.09-2.08.28.03.53.04.77.04.23,0,.46-.02.69-.04.36.1.59.18.69.25s.23.14.39.2c2.01.38,3.62.79,4.83,1.23,1.33.49,2.47,1.09,3.43,1.8,1.33.49,2.7.94,4.11,1.35,1.41.41,2.78,1,4.11,1.78,1.13.06,2.17.34,3.13.85.96.51,1.67,1.29,2.12,2.31-.17.66-.17,1.2,0,1.64.16.44.45.82.87,1.15-.12,1.21-.45,2.19-.99,2.92-.54.74-1.21,1.32-2.02,1.76-.81.44-1.7.77-2.68.98-.98.22-1.93.42-2.87.62-.35.27-.72.45-1.12.56-.4.11-.79.23-1.16.38-1.84,1.19-3.79,2.07-5.84,2.62-2.06.56-4.12,1.08-6.21,1.57-1.51.38-3,.77-4.49,1.15-1.49.39-2.96.85-4.42,1.39l-.81.29.31.76c.28.61.74,1.02,1.37,1.26.35.13.71.21,1.07.23.37.03.72.03,1.05,0,.32,0,.61.02.88.03.27,0,.48.04.64.1l.49.29c.57-.08,1.02-.12,1.36-.12.34,0,.69,0,1.04.03.28.03.58.05.92.07.33.01.67,0,1.02-.06.82.3,1.66.47,2.5.52.85.04,1.68.05,2.52.04.5,0,.99,0,1.48,0s.97.02,1.46.05c.08.28.19.53.34.75.15.22.31.41.46.57.23.26.38.47.47.63s.11.34.07.54l-.39,1.64,1.4-.72c.31.62.4,1.16.26,1.63-.14.47-.4,1.05-.8,1.73-1.69.78-3.57,1.19-5.65,1.21s-4.24-.03-6.48-.17c-.49-.04-.96-.07-1.41-.12-.45-.04-.93-.06-1.43-.07l.41-.98-1.53.35c-.21.07-.38.14-.51.22-.14.08-.27.16-.42.25-1.06-.14-1.94-.26-2.64-.38-.7-.11-1.35-.21-1.97-.29-.69-.08-1.33-.17-1.92-.27-.59-.11-1.22-.29-1.88-.53-.22-.08-.43-.17-.63-.26-.2-.09-.41-.19-.61-.31-.17-.13-.37-.28-.6-.43l-.21-1.48-1.15.33c-.24-.41-.53-.86-.86-1.34-.26-.46-.5-.9-.7-1.33s-.26-.81-.17-1.14l.16-.59-.52-.35c-.04-.09-.05-.27-.02-.54,0-.21,0-.47-.04-.77-.03-.3-.15-.58-.34-.83Z"/>
  <path d="M417.66,87.55c.07-.58.16-1.1.29-1.55.13-.45.29-.87.48-1.26.19-.39.42-.76.69-1.1.26-.34.55-.7.88-1.09.29-.04.55-.11.79-.23s.48-.23.7-.34c.23-.13.44-.24.65-.32s.4-.12.57-.1l.32-.11c.47-.35,1.03-.66,1.66-.91.63-.25,1.28-.48,1.94-.7.55-.18,1.1-.36,1.64-.55.54-.19,1.05-.43,1.53-.73.19.06.35.06.51,0,.12-.11.19-.25.21-.4.07-.03.13-.06.18-.09.06-.04.12-.07.18-.09.18-.1.42-.19.73-.27.31-.08.53-.24.68-.46l.9-.55-1.03-.19c-.51-.11-1.06-.2-1.66-.27s-1.1-.13-1.52-.18c-.35-.04-.7-.08-1.06-.14-.36-.06-.75-.12-1.19-.2-.31-.31-.56-.67-.73-1.08-.18-.42-.29-.85-.34-1.3s-.04-.9.04-1.36c.08-.46.23-.88.46-1.27.16,0,.31-.02.44-.04s.26-.05.39-.08c.21.03.35.06.41.09.06.03.14.06.24.08,1.18.06,2.13.17,2.85.32.8.17,1.5.42,2.1.75.8.17,1.61.32,2.45.44.84.12,1.67.35,2.49.69.65-.06,1.27.02,1.86.24s1.05.6,1.39,1.15c-.04.39,0,.7.12.94s.32.43.59.59c.03.7-.09,1.28-.33,1.75-.25.46-.59.85-1.01,1.17-.43.31-.91.57-1.45.77-.54.2-1.07.39-1.59.58-.18.18-.38.32-.59.41-.22.09-.43.2-.63.31-.95.83-2,1.48-3.12,1.96-1.13.48-2.27.94-3.42,1.39-.83.34-1.65.67-2.47,1.01-.82.34-1.62.72-2.41,1.14l-.44.23.24.41c.21.32.5.53.88.61.21.04.42.06.63.05.21-.01.41-.04.6-.08.18-.02.35-.04.5-.05.15-.02.28-.01.37,0l.3.12c.32-.09.57-.15.77-.18.19-.03.39-.05.59-.06.16,0,.34-.02.53-.03.19-.02.39-.06.58-.11.49.11.98.14,1.47.1.49-.04.97-.1,1.44-.18.29-.04.57-.08.84-.12.28-.04.55-.07.84-.09.07.15.15.29.25.4.11.11.21.21.31.29.15.13.26.24.32.32.06.08.09.18.08.3l-.09.96.74-.53c.23.33.32.63.28.91-.04.28-.15.63-.32,1.05-.9.58-1.94.96-3.12,1.14-1.18.18-2.42.32-3.71.41-.28.02-.55.03-.81.05-.26.01-.54.04-.82.08l.16-.59-.84.32c-.11.06-.2.11-.27.16-.07.05-.14.11-.22.18-.62,0-1.13,0-1.53,0-.41,0-.79-.01-1.14-.01-.4.01-.77.01-1.12,0-.34-.02-.71-.07-1.11-.15-.13-.03-.26-.06-.38-.1-.12-.04-.25-.08-.38-.13-.11-.06-.23-.13-.37-.2l-.24-.83-.63.28c-.17-.22-.37-.45-.59-.7-.18-.24-.35-.47-.5-.71-.15-.23-.21-.44-.19-.64l.04-.35-.32-.16s-.05-.15-.05-.31c-.01-.12-.04-.27-.08-.44-.04-.17-.13-.32-.26-.44Z"/>
  <path d="M456.63,64.09c.16-.33.32-.62.49-.86.17-.24.35-.46.55-.66.2-.2.41-.37.64-.52.23-.15.48-.31.75-.47.18.04.35.05.52.03.17-.02.33-.04.49-.06.16-.03.31-.05.46-.06.14,0,.26.01.36.06h.21c.36-.11.75-.18,1.18-.2s.86-.03,1.3-.02c.37,0,.73.01,1.09,0,.36,0,.71-.04,1.06-.12.1.07.2.11.3.1.1-.04.17-.11.21-.2.04,0,.09,0,.13-.02.04,0,.09-.02.13-.02.13-.02.29-.03.49-.01.2.01.37-.03.5-.14l.65-.15-.58-.33c-.28-.17-.59-.34-.93-.5-.34-.16-.63-.3-.88-.42-.2-.09-.4-.19-.6-.3-.2-.11-.42-.23-.67-.36-.12-.25-.2-.51-.22-.8-.02-.28,0-.57.06-.85.06-.28.16-.55.3-.81.14-.26.32-.48.54-.67.1.03.19.05.27.07s.17.03.25.03c.12.06.2.11.23.14.03.03.07.06.12.1.69.28,1.24.54,1.64.78.44.27.81.56,1.1.88.44.27.9.52,1.37.77.48.24.92.55,1.35.92.4.1.75.27,1.06.52.31.25.5.58.59.97-.11.22-.14.42-.12.58.03.17.1.33.23.47-.13.42-.31.75-.56.97-.25.23-.53.39-.85.49-.32.1-.66.16-1.03.17-.36,0-.72.02-1.07.02-.14.07-.29.11-.44.12-.15,0-.3.03-.44.05-.74.3-1.5.47-2.27.53-.77.05-1.55.1-2.33.13-.56.03-1.13.06-1.68.1-.56.04-1.12.1-1.67.19l-.31.05.06.29c.06.24.19.42.4.54.12.07.24.12.37.16s.25.06.37.08c.11.03.22.05.31.07.09.02.17.05.22.08l.15.14c.21.01.37.03.49.05.12.03.25.05.37.08.1.03.2.06.32.09.12.03.24.05.37.05.27.17.56.29.86.36s.6.14.9.19c.18.04.35.07.53.1.17.03.35.07.52.12,0,.11.03.2.07.29.04.09.08.17.12.24.06.11.1.2.12.26.02.06.02.13-.01.2l-.25.56.55-.16c.07.24.06.44-.02.6-.08.16-.22.35-.4.56-.66.16-1.36.18-2.1.04-.74-.13-1.51-.31-2.3-.51-.17-.05-.34-.09-.5-.14-.16-.05-.33-.09-.51-.12l.22-.32-.57.02c-.08.01-.14.02-.2.04-.05.02-.11.04-.17.06-.37-.12-.67-.23-.91-.32-.24-.09-.47-.17-.68-.24-.24-.07-.46-.15-.67-.23-.2-.08-.41-.19-.63-.32-.07-.04-.14-.09-.21-.14-.07-.05-.13-.1-.2-.15-.05-.06-.11-.13-.18-.2l.03-.54-.43.04c-.06-.16-.13-.34-.21-.54-.06-.18-.11-.36-.16-.53-.04-.17-.04-.31.02-.42l.1-.2-.16-.16s0-.1.03-.2c.02-.08.03-.17.04-.28,0-.11-.01-.22-.06-.32Z"/>
  <path d="M128.08,138.91c-.22-.75-.37-1.44-.45-2.06-.08-.62-.1-1.22-.07-1.81.04-.59.12-1.16.27-1.72.14-.56.32-1.16.51-1.8.33-.2.62-.43.86-.7.24-.27.47-.53.69-.78.21-.28.42-.52.63-.73.21-.21.43-.35.65-.42l.34-.3c.4-.68.92-1.34,1.57-1.98s1.32-1.26,2.03-1.87c.59-.51,1.17-1.02,1.73-1.54.56-.52,1.06-1.08,1.5-1.69.26-.02.47-.11.62-.28.09-.2.11-.4.04-.6.07-.06.13-.14.18-.21.05-.08.11-.15.18-.21.17-.22.42-.46.76-.72.33-.26.53-.57.6-.93l.81-1.15-1.37.3c-.69.13-1.42.31-2.18.53-.77.22-1.42.42-1.98.57-.45.14-.91.27-1.38.38-.47.11-.99.24-1.58.38-.54-.21-1.03-.53-1.47-.95-.44-.42-.8-.89-1.1-1.42-.3-.52-.52-1.09-.66-1.7-.14-.61-.18-1.21-.11-1.81.2-.09.37-.18.52-.28.15-.09.3-.2.44-.3.28-.08.46-.11.55-.11.09,0,.21,0,.33-.02,1.48-.55,2.71-.91,3.68-1.09,1.07-.2,2.07-.26,2.98-.17,1.07-.2,2.16-.45,3.25-.73,1.1-.29,2.24-.44,3.43-.45.77-.41,1.57-.64,2.41-.67s1.61.19,2.31.69c.15.5.36.86.64,1.09.28.22.62.37,1.03.42.4.85.57,1.63.5,2.33s-.28,1.36-.64,1.96c-.36.61-.82,1.18-1.38,1.71-.56.53-1.11,1.04-1.65,1.54-.12.32-.3.59-.52.81-.22.23-.43.46-.62.71-.75,1.52-1.69,2.87-2.83,4.05-1.14,1.18-2.3,2.35-3.49,3.5-.84.85-1.68,1.69-2.52,2.54-.83.85-1.62,1.74-2.37,2.67l-.42.52.51.38c.43.29.89.39,1.4.29.28-.05.55-.14.8-.27.26-.13.49-.26.7-.41.22-.12.41-.23.59-.33.18-.1.33-.16.46-.19h.44c.34-.28.63-.49.85-.62.23-.13.46-.26.7-.39.19-.09.41-.2.63-.32.23-.12.45-.27.65-.44.66-.13,1.29-.34,1.86-.65.58-.31,1.13-.63,1.68-.97.33-.2.66-.39.98-.58.32-.19.65-.37.99-.54.16.16.34.27.52.36s.37.15.53.2c.25.08.44.16.56.23.12.07.21.18.26.33l.39,1.24.64-1.03c.45.29.72.61.82.98.1.37.15.85.16,1.46-.81,1.18-1.89,2.2-3.25,3.04-1.36.84-2.82,1.66-4.36,2.45-.34.17-.67.33-.98.48-.32.15-.64.33-.97.52l-.12-.81-.87.84c-.11.13-.19.24-.25.35-.06.1-.12.21-.17.33-.76.33-1.39.59-1.89.79-.5.2-.97.4-1.42.59-.49.22-.95.42-1.38.58-.43.16-.92.29-1.45.39-.18.03-.35.06-.52.08-.17.02-.35.03-.53.04-.16-.02-.35-.04-.57-.05l-.72-.89-.62.67c-.33-.18-.69-.36-1.1-.55-.36-.2-.69-.4-.99-.61-.3-.21-.49-.44-.57-.69l-.12-.45-.48-.03c-.06-.04-.14-.16-.23-.35-.08-.14-.19-.31-.33-.49-.14-.18-.32-.32-.55-.41Z"/>
  <path d="M160.71,102.9c.03-.45.08-.85.16-1.2s.19-.68.32-.99c.13-.31.29-.6.48-.88.19-.27.4-.56.63-.88.22-.04.42-.11.6-.21s.36-.2.53-.29c.17-.11.33-.2.49-.27.16-.07.3-.11.44-.1l.24-.1c.35-.29.76-.55,1.24-.77.48-.22.96-.42,1.46-.62.42-.16.83-.32,1.24-.49.41-.17.79-.38,1.15-.62.15.04.28.03.39-.03.09-.09.14-.2.14-.32.05-.02.1-.05.14-.08.04-.03.09-.06.14-.08.13-.08.32-.16.55-.24.23-.08.4-.2.51-.38l.67-.46-.8-.11c-.4-.06-.83-.11-1.29-.14-.46-.03-.85-.05-1.18-.08-.27-.01-.54-.03-.82-.06s-.58-.06-.93-.1c-.25-.22-.46-.49-.61-.8-.15-.31-.26-.64-.32-.98-.06-.34-.06-.69-.02-1.05.04-.36.14-.69.29-1,.12-.01.24-.03.34-.05.1-.02.2-.05.29-.08.17.01.27.03.32.05.05.02.11.04.18.05.91,0,1.65.04,2.21.13.62.1,1.17.26,1.65.49.62.1,1.26.18,1.91.24s1.3.2,1.94.43c.5-.07.98-.04,1.44.11.46.14.83.42,1.12.83-.02.3.03.54.13.72.11.18.27.32.48.43.05.54-.01.99-.18,1.36-.17.37-.42.68-.73.94-.31.26-.68.48-1.08.66-.41.18-.81.35-1.2.51-.13.15-.28.26-.44.34-.16.08-.32.17-.47.26-.7.68-1.47,1.22-2.32,1.64-.85.42-1.7.82-2.57,1.21-.62.29-1.24.59-1.86.88-.62.29-1.22.62-1.81.98l-.33.2.2.31c.17.24.41.38.7.43.16.03.32.03.49.01.16-.02.31-.05.46-.09.14-.02.27-.04.38-.06.12-.02.21-.02.29-.01l.24.08c.24-.08.44-.14.58-.17.15-.03.3-.05.46-.07.12-.01.26-.03.41-.05.15-.02.29-.06.44-.11.38.06.76.07,1.13.01s.74-.12,1.1-.2c.22-.04.44-.08.65-.12.21-.04.43-.08.64-.1.06.12.13.21.21.3.08.08.17.15.25.21.12.1.21.17.26.24.05.06.08.14.08.23l-.03.75.55-.43c.19.24.27.47.25.69s-.09.49-.2.82c-.67.48-1.46.82-2.36,1.01-.9.19-1.85.35-2.84.47-.22.03-.43.05-.62.07-.2.02-.41.05-.63.09l.1-.46-.64.28c-.08.05-.15.09-.2.14-.05.04-.11.09-.16.15-.48.03-.87.05-1.18.06s-.61.02-.88.04c-.31.03-.6.04-.86.04-.27,0-.55-.02-.87-.07-.1-.02-.2-.04-.3-.06-.1-.02-.19-.05-.29-.08-.08-.04-.18-.09-.3-.14l-.22-.63-.47.24c-.14-.16-.3-.33-.49-.51-.15-.18-.29-.35-.42-.52-.12-.17-.18-.33-.17-.48l.02-.27-.26-.11s-.04-.11-.05-.24c-.02-.09-.04-.2-.08-.33-.04-.13-.11-.24-.22-.33Z"/>
  <path d="M154.29,80.12c-.03-.28-.04-.54-.02-.77s.05-.44.1-.65c.05-.21.12-.41.21-.6s.19-.39.3-.61c.13-.05.25-.11.36-.19s.2-.16.3-.23c.1-.08.19-.16.28-.22s.18-.1.26-.11l.14-.09c.19-.22.42-.42.7-.6.28-.18.56-.36.85-.53.25-.14.49-.29.72-.43.24-.15.45-.31.65-.5.09,0,.17,0,.24-.06.05-.07.07-.14.06-.21.03-.02.05-.04.08-.06.02-.02.05-.04.08-.06.08-.07.18-.13.32-.21.14-.07.23-.17.28-.29l.37-.35h-.51c-.26.01-.53.03-.82.06s-.54.05-.74.07c-.17.02-.34.03-.52.04-.18,0-.37.02-.59.03-.18-.11-.33-.26-.46-.44-.13-.18-.23-.37-.3-.58-.07-.21-.11-.43-.12-.65,0-.23.02-.44.08-.65.08-.02.14-.04.21-.06.06-.02.12-.05.18-.08.11,0,.17,0,.21,0,.03,0,.07.01.12.01.57-.09,1.03-.14,1.39-.14.4,0,.76.05,1.08.14.4,0,.8-.01,1.21-.04.41-.03.83,0,1.26.07.3-.09.61-.12.91-.08.3.04.56.18.78.4.02.19.07.33.16.43.09.1.2.17.34.22.08.33.09.62.02.87-.07.25-.19.47-.36.66s-.37.37-.61.52c-.24.15-.47.3-.7.44-.07.1-.15.19-.24.26-.09.07-.18.14-.27.21-.37.49-.8.91-1.28,1.26-.49.35-.98.68-1.48,1.01-.36.25-.72.49-1.07.74s-.7.51-1.03.79l-.18.16.16.17c.13.13.29.2.48.2.1,0,.21-.01.3-.04s.19-.06.28-.1c.08-.03.16-.05.23-.08.07-.02.13-.04.18-.04l.16.03c.14-.08.26-.13.35-.16s.18-.06.28-.09c.08-.02.16-.04.25-.07s.18-.07.26-.11c.25,0,.48-.04.71-.11.23-.07.45-.15.67-.23.13-.05.26-.09.39-.14.13-.05.26-.09.39-.13.05.07.1.12.16.16.06.04.12.08.18.11.09.05.15.09.19.12.04.03.06.08.07.13l.06.47.3-.33c.14.13.22.27.23.4s0,.31-.04.53c-.37.37-.83.66-1.37.87-.54.21-1.12.4-1.72.58-.13.04-.26.07-.38.11s-.25.07-.38.12v-.3s-.36.24-.36.24c-.05.04-.08.07-.11.11-.03.03-.06.07-.08.11-.29.07-.54.12-.73.16-.19.04-.38.08-.54.11-.19.05-.37.08-.53.11s-.35.04-.55.04c-.06,0-.13,0-.19,0-.06,0-.12-.01-.19-.02-.06-.02-.12-.04-.2-.06l-.2-.37-.27.2c-.11-.08-.22-.17-.36-.27-.11-.09-.22-.19-.31-.28-.09-.09-.15-.19-.16-.28v-.17s-.18-.04-.18-.04c-.02-.02-.04-.07-.06-.14-.02-.06-.05-.12-.09-.2-.04-.08-.09-.14-.17-.18Z"/>
</svg>