<?xml version="1.0" encoding="UTF-8"?>
<svg id="Design" xmlns="http://www.w3.org/2000/svg" viewBox="0 0 64 64">
  <defs>
    <style>
      .cls-1 {
        fill: none;
        stroke: #212325;
        stroke-linecap: round;
        stroke-linejoin: round;
        stroke-width: 2.5px;
      }
    </style>
  </defs>
  <rect class="cls-1" x="24.49" y="50.78" width="15.02" height="4.1" rx="2.05" ry="2.05"/>
  <path class="cls-1" d="M41.22,48.73h0c0,1.13-.88,2.05-1.98,2.05h-14.49c-1.09,0-1.98-.92-1.98-2.05h0c0-1.13.88-2.05,1.98-2.05h14.49c1.09,0,1.98.92,1.98,2.05Z"/>
  <path class="cls-1" d="M37.12,54.88c0,2.83-2.29,5.12-5.12,5.12s-5.12-2.29-5.12-5.12h10.24Z"/>
  <path class="cls-1" d="M51.12,23.12c0-11.28-9.77-20.28-21.31-19-8.5.94-15.49,7.67-16.72,16.13-1.06,7.29,2,13.94,7.2,17.97,2.58,2.01,4.21,5,4.21,8.28v.18h15.02v-.18c0-3.28,1.63-6.27,4.22-8.29,4.5-3.5,7.39-8.96,7.39-15.1Z"/>
</svg>