<?xml version="1.0" encoding="UTF-8"?>
<svg id="Design" xmlns="http://www.w3.org/2000/svg" viewBox="0 0 24 24">
  <defs>
    <style>
      .cls-1 {
        fill: none;
        stroke: #202325;
        stroke-linecap: round;
        stroke-linejoin: round;
        stroke-width: 1.5px;
      }
    </style>
  </defs>
  <path class="cls-1" d="M18,15v3c0,1.1-.9,2-2,2H6c-1.1,0-2-.9-2-2V8c0-1.1.9-2,2-2h3"/>
  <path class="cls-1" d="M15.19,4.24h3c.55,0,1,.45,1,1v3.05c0,.55-.45,1-1,1h-3v-5.05h0Z" transform="translate(.25 14.14) rotate(-45)"/>
  <path class="cls-1" d="M13.99,6.39l3.57,3.57-5.81,5.81c-.17.17-.39.27-.62.29l-2.36.2c-.62.05-1.14-.46-1.08-1.08l.2-2.36c.02-.24.12-.46.29-.62l5.81-5.81Z"/>
</svg>