<?xml version="1.0" encoding="UTF-8"?>
<svg id="Design" xmlns="http://www.w3.org/2000/svg" viewBox="0 0 64 64">
  <defs>
    <style>
      .cls-1 {
        fill: none;
        stroke: #212325;
        stroke-linecap: round;
        stroke-linejoin: round;
        stroke-width: 2.5px;
      }
    </style>
  </defs>
  <path class="cls-1" d="M24.26,41.89c0-5.29,4.28-9.57,9.57-9.57,2.31,0,4.44.82,6.09,2.19"/>
  <path class="cls-1" d="M39.91,33.98c0-4.99,4.05-9.05,9.05-9.05s9.05,4.05,9.05,9.05"/>
  <line class="cls-1" x1="24.6" y1="25.4" x2="24.6" y2="39.34"/>
  <path class="cls-1" d="M22.44,23.23l2.16,2.16h6.61c.79,0,1.55-.31,2.11-.87l4.72-4.72c.82-.82.82-2.15,0-2.97h0c-.82-.82-2.15-.82-2.97,0l-3.17,3.17c-.81.81-2.11.81-2.92,0h0c-.81-.81-.81-2.11,0-2.92l2.16-2.16"/>
  <path class="cls-1" d="M23.54,10.49h8.21c1.06,0,2.08.42,2.83,1.17h0c.75.75,1.17,1.76,1.17,2.83v1.68"/>
  <path class="cls-1" d="M10.26,44.98c-.35.14-.74.21-1.14.21-1.72,0-3.12-1.39-3.12-3.12,0-1.13.6-2.12,1.5-2.67"/>
  <path class="cls-1" d="M23.54,10.49c-9.49,7.53-15.5,16.83-16.03,28.93"/>
  <path class="cls-1" d="M54.24,51.23c-26.86,5.9-38.69-.89-43.98-6.25"/>
</svg>