<?xml version="1.0" encoding="UTF-8"?>
<svg id="Design" xmlns="http://www.w3.org/2000/svg" viewBox="0 0 64 64">
  <defs>
    <style>
      .cls-1 {
        fill: none;
        stroke: #212325;
        stroke-linecap: round;
        stroke-linejoin: round;
        stroke-width: 2.5px;
      }
    </style>
  </defs>
  <path class="cls-1" d="M7.7,13.2l9.98,13.88c1.22,1.7,3.15,2.59,5.09,2.57.89-.01,1.72.46,2.22,1.2l17.03,25.45c1.12,1.67,3.43,2.05,5.02.78,1.51-1.19,1.64-3.45.47-4.97l-18.57-24.1c-.55-.71-.73-1.65-.43-2.49.64-1.84.41-3.95-.81-5.65l-9.98-13.88"/>
  <line class="cls-1" x1="12.71" y1="9.6" x2="22.44" y2="23.14"/>
  <path class="cls-1" d="M38.35,33.48l.23-.35c1.03-1.57,2.67-2.57,4.51-2.96,3.23-.69,6.87-3.27,9.61-7.17,4.32-6.14,4.82-13.24,1.11-15.85-3.71-2.61-10.22.25-14.55,6.39-2.74,3.89-3.94,8.17-3.51,11.44.19,1.47-.02,2.95-.67,4.25"/>
  <path class="cls-1" d="M26.15,41.23l-8.36,11.08c-1.16,1.53-1,3.79.52,4.97,1.61,1.25,3.91.85,5.01-.83l6.44-9.83"/>
</svg>