<?xml version="1.0" encoding="UTF-8"?>
<svg id="Design" xmlns="http://www.w3.org/2000/svg" viewBox="0 0 64 64">
  <defs>
    <style>
      .cls-1 {
        fill: none;
        stroke: #212325;
        stroke-linecap: round;
        stroke-linejoin: round;
        stroke-width: 2.5px;
      }
    </style>
  </defs>
  <path class="cls-1" d="M56,13.18v30c-2.53-.77-5.22-1.17-8-1.17-.2,0-.4,0-.6.02-1.19.01-2.36.11-3.5.28-4.38.64-8.42,2.29-11.89,4.72-3.47-2.42-7.52-4.08-11.91-4.72-1.15-.17-2.31-.27-3.5-.28-.2-.02-.4-.02-.6-.02-2.78,0-5.46.4-8,1.17V13.18c2.54-.77,5.22-1.17,8-1.17,5.96,0,11.48,1.86,16.01,5.02,4.53-3.17,10.05-5.02,15.99-5.02,2.78,0,5.47.4,8,1.17Z"/>
  <path class="cls-1" d="M62,22.65v29.33c-4.11-2.61-8.89-4.24-14.02-4.57-.65-.05-1.31-.07-1.98-.07-1.02,0-2.02.05-3.02.15-2.79.28-5.47.94-7.99,1.95-1.03.39-2.02.85-2.99,1.37-.97-.52-1.96-.98-2.99-1.37-2.52-1.01-5.2-1.67-7.99-1.95-1-.1-2-.15-3.02-.15-.67,0-1.33.02-1.98.07-5.13.33-9.91,1.96-14.02,4.57v-29.33c1.87-1.2,3.88-2.18,6-2.92v23.45c2.54-.77,5.22-1.17,8-1.17.2,0,.4,0,.6.02,1.19.01,2.35.11,3.5.28,4.39.64,8.44,2.3,11.91,4.72,3.47-2.43,7.51-4.08,11.89-4.72,1.14-.17,2.31-.27,3.5-.28.2-.02.4-.02.6-.02,2.78,0,5.47.4,8,1.17v-23.45c2.12.74,4.13,1.72,6,2.92Z"/>
  <line class="cls-1" x1="32.01" y1="47.03" x2="32.01" y2="50.82"/>
  <line class="cls-1" x1="32.01" y1="17.03" x2="32.01" y2="47.03"/>
</svg>