<?xml version="1.0" encoding="UTF-8"?>
<svg id="Design" xmlns="http://www.w3.org/2000/svg" viewBox="0 0 64 64">
  <defs>
    <style>
      .cls-1 {
        fill: none;
        stroke: #fff;
        stroke-linecap: round;
        stroke-linejoin: round;
        stroke-width: 2.5px;
      }
    </style>
  </defs>
  <path class="cls-1" d="M41.99,31.74c0,.22,0,.45-.01.67-.2,8.04-4.06,15.18-9.98,19.79-5.93-4.62-9.78-11.75-9.98-19.79-.01-.22-.01-.45-.01-.67,0-3.38.65-6.59,1.82-9.55,1.71-4.34,4.56-8.09,8.17-10.91,3.62,2.82,6.46,6.57,8.17,10.91,1.17,2.96,1.82,6.17,1.82,9.55Z"/>
  <path class="cls-1" d="M47.77,39.44c-3.13,6.71-9.06,11.22-15.77,12.76,5.93-4.62,9.78-11.75,9.98-19.79.01-.22.01-.45.01-.67,0-3.38-.65-6.59-1.82-9.55,2.22-1.42,4.67-2.44,7.23-3.03,1.53,3.01,2.41,6.34,2.53,9.75.11,3.52-.58,7.11-2.17,10.53Z"/>
  <path class="cls-1" d="M51.69,47.36c-5.68,4.75-12.97,6.29-19.69,4.85,6.7-1.54,12.64-6.05,15.77-12.76,1.59-3.42,2.28-7.01,2.17-10.53,3.32-.77,6.75-.78,10.05-.07.23,6.87-2.61,13.77-8.29,18.51Z"/>
  <path class="cls-1" d="M32,52.2c-6.69-1.54-12.64-6.05-15.77-12.76-1.59-3.41-2.28-7.01-2.16-10.53.12-3.41.99-6.73,2.53-9.75,2.56.59,5.01,1.61,7.22,3.03-1.17,2.96-1.82,6.17-1.82,9.55,0,.22,0,.45.01.67.2,8.04,4.06,15.18,9.98,19.79Z"/>
  <path class="cls-1" d="M32,52.2c-6.71,1.45-14.01-.1-19.69-4.85S3.78,35.72,4.01,28.84c3.31-.71,6.74-.7,10.06.07-.12,3.52.57,7.12,2.16,10.53,3.13,6.71,9.07,11.22,15.77,12.76Z"/>
</svg>